<mxfile host="app.diagrams.net" modified="2023-10-16T23:06:45.009Z" agent="Mozilla/5.0 (Windows NT 10.0; Win64; x64) AppleWebKit/537.36 (KHTML, like Gecko) Chrome/118.0.0.0 Safari/537.36 Edg/118.0.2088.46" etag="ZLLXx3lhqd36GmI5tZHq" version="21.7.4" type="github">
  <diagram name="Page-1" id="b5b7bab2-c9e2-2cf4-8b2a-24fd1a2a6d21">
    <mxGraphModel dx="1072" dy="1378" grid="1" gridSize="10" guides="1" tooltips="1" connect="1" arrows="1" fold="1" page="1" pageScale="1" pageWidth="827" pageHeight="1169" background="none" math="0" shadow="0">
      <root>
        <mxCell id="0" />
        <mxCell id="1" parent="0" />
        <mxCell id="6e0c8c40b5770093-72" value="" style="shape=folder;fontStyle=1;spacingTop=10;tabWidth=194;tabHeight=22;tabPosition=left;html=1;rounded=0;shadow=0;comic=0;labelBackgroundColor=none;strokeWidth=1;fillColor=none;fontFamily=Verdana;fontSize=10;align=center;strokeColor=default;" parent="1" vertex="1">
          <mxGeometry x="300" y="590" width="1001" height="1040" as="geometry" />
        </mxCell>
        <mxCell id="6e0c8c40b5770093-6" value="" style="group" parent="1" vertex="1" connectable="0">
          <mxGeometry x="599.5" y="1000" width="261.5" height="100" as="geometry" />
        </mxCell>
        <mxCell id="6e0c8c40b5770093-4" value="&amp;lt;&amp;lt;interface&amp;gt;&amp;gt;&lt;br&gt;PizzaFactory" style="shape=folder;fontStyle=1;spacingTop=10;tabWidth=50;tabHeight=17;tabPosition=left;html=1;rounded=0;shadow=0;comic=0;labelBackgroundColor=none;strokeWidth=1;fontFamily=Verdana;fontSize=10;align=center;" parent="6e0c8c40b5770093-6" vertex="1">
          <mxGeometry width="130" height="70" as="geometry" />
        </mxCell>
        <mxCell id="4kux9JXm7JYMOQ9NT7fL-21" value="" style="rounded=0;orthogonalLoop=1;jettySize=auto;html=1;edgeStyle=elbowEdgeStyle;startArrow=classicThin;startFill=0;" edge="1" parent="1" source="6e0c8c40b5770093-33" target="6e0c8c40b5770093-50">
          <mxGeometry relative="1" as="geometry" />
        </mxCell>
        <mxCell id="6e0c8c40b5770093-33" value="" style="shape=folder;fontStyle=1;spacingTop=10;tabWidth=123;tabHeight=24;tabPosition=left;html=1;rounded=0;shadow=0;comic=0;labelBackgroundColor=none;strokeColor=#000000;strokeWidth=1;fillColor=#ffffff;fontFamily=Verdana;fontSize=10;fontColor=#000000;align=center;" parent="1" vertex="1">
          <mxGeometry x="400" y="1130" width="689.5" height="240" as="geometry" />
        </mxCell>
        <mxCell id="6e0c8c40b5770093-64" style="edgeStyle=elbowEdgeStyle;rounded=0;html=1;entryX=0.559;entryY=0.251;entryPerimeter=0;dashed=1;labelBackgroundColor=none;startFill=0;endArrow=open;endFill=0;endSize=10;fontFamily=Verdana;fontSize=10;" parent="1" target="6e0c8c40b5770093-44" edge="1">
          <mxGeometry relative="1" as="geometry">
            <mxPoint x="672" y="1225.5" as="sourcePoint" />
          </mxGeometry>
        </mxCell>
        <mxCell id="6e0c8c40b5770093-65" style="edgeStyle=none;rounded=0;html=1;dashed=1;labelBackgroundColor=none;startFill=0;endArrow=open;endFill=0;endSize=10;fontFamily=Verdana;fontSize=10;entryX=-0.003;entryY=0.411;entryPerimeter=0;" parent="1" target="6e0c8c40b5770093-45" edge="1">
          <mxGeometry relative="1" as="geometry">
            <mxPoint x="701.7937135368225" y="1225.5" as="sourcePoint" />
          </mxGeometry>
        </mxCell>
        <mxCell id="6e0c8c40b5770093-66" style="edgeStyle=none;rounded=0;html=1;dashed=1;labelBackgroundColor=none;startFill=0;endArrow=open;endFill=0;endSize=10;fontFamily=Verdana;fontSize=10;entryX=1.013;entryY=0.444;entryPerimeter=0;" parent="1" edge="1">
          <mxGeometry relative="1" as="geometry">
            <mxPoint x="635.0272847901808" y="1235.5" as="sourcePoint" />
            <mxPoint x="540.9559999999999" y="1321.08" as="targetPoint" />
          </mxGeometry>
        </mxCell>
        <mxCell id="6e0c8c40b5770093-42" value="PizzaFactory" style="shape=folder;fontStyle=1;spacingTop=10;tabWidth=50;tabHeight=17;tabPosition=left;html=1;rounded=0;shadow=0;comic=0;labelBackgroundColor=none;strokeColor=#000000;strokeWidth=1;fillColor=#ffffff;fontFamily=Verdana;fontSize=10;fontColor=#000000;align=center;" parent="1" vertex="1">
          <mxGeometry x="617.5" y="1169" width="112" height="70" as="geometry" />
        </mxCell>
        <mxCell id="6e0c8c40b5770093-43" value="CheesePizzaFactory" style="shape=folder;fontStyle=1;spacingTop=10;tabWidth=50;tabHeight=17;tabPosition=left;html=1;rounded=0;shadow=0;comic=0;labelBackgroundColor=none;strokeColor=#000000;strokeWidth=1;fillColor=#ffffff;fontFamily=Verdana;fontSize=10;fontColor=#000000;align=center;" parent="1" vertex="1">
          <mxGeometry x="426.5" y="1290" width="112" height="70" as="geometry" />
        </mxCell>
        <mxCell id="6e0c8c40b5770093-44" value="AllMeatsPizzaFactory" style="shape=folder;fontStyle=1;spacingTop=10;tabWidth=50;tabHeight=17;tabPosition=left;html=1;rounded=0;shadow=0;comic=0;labelBackgroundColor=none;strokeColor=#000000;strokeWidth=1;fillColor=#ffffff;fontFamily=Verdana;fontSize=10;fontColor=#000000;align=center;" parent="1" vertex="1">
          <mxGeometry x="600" y="1290" width="129.5" height="70" as="geometry" />
        </mxCell>
        <mxCell id="6e0c8c40b5770093-45" value="VegetablePizzaFactory" style="shape=folder;fontStyle=1;spacingTop=10;tabWidth=50;tabHeight=17;tabPosition=left;html=1;rounded=0;shadow=0;comic=0;labelBackgroundColor=none;strokeColor=#000000;strokeWidth=1;fillColor=#ffffff;fontFamily=Verdana;fontSize=10;fontColor=#000000;align=center;" parent="1" vertex="1">
          <mxGeometry x="769.5" y="1280" width="130.5" height="70" as="geometry" />
        </mxCell>
        <mxCell id="6e0c8c40b5770093-47" value="" style="shape=folder;fontStyle=1;spacingTop=10;tabWidth=123;tabHeight=24;tabPosition=left;html=1;rounded=0;shadow=0;comic=0;labelBackgroundColor=none;strokeWidth=1;fontFamily=Verdana;fontSize=10;align=center;" parent="1" vertex="1">
          <mxGeometry x="449.75" y="1430" width="650" height="130" as="geometry" />
        </mxCell>
        <mxCell id="6e0c8c40b5770093-49" value="CheesePizza" style="shape=folder;fontStyle=1;spacingTop=10;tabWidth=50;tabHeight=17;tabPosition=left;html=1;rounded=0;shadow=0;comic=0;labelBackgroundColor=none;strokeWidth=1;fontFamily=Verdana;fontSize=10;align=center;" parent="1" vertex="1">
          <mxGeometry x="489.5" y="1468" width="112" height="70" as="geometry" />
        </mxCell>
        <mxCell id="6e0c8c40b5770093-50" value="AllMeatsPizza" style="shape=folder;fontStyle=1;spacingTop=10;tabWidth=50;tabHeight=17;tabPosition=left;html=1;rounded=0;shadow=0;comic=0;labelBackgroundColor=none;strokeWidth=1;fontFamily=Verdana;fontSize=10;align=center;" parent="1" vertex="1">
          <mxGeometry x="637" y="1468" width="112" height="70" as="geometry" />
        </mxCell>
        <mxCell id="4kux9JXm7JYMOQ9NT7fL-5" value="PepperoniPizzaFactory" style="shape=folder;fontStyle=1;spacingTop=10;tabWidth=50;tabHeight=17;tabPosition=left;html=1;rounded=0;shadow=0;comic=0;labelBackgroundColor=none;strokeColor=#000000;strokeWidth=1;fillColor=#ffffff;fontFamily=Verdana;fontSize=10;fontColor=#000000;align=center;" vertex="1" parent="1">
          <mxGeometry x="930" y="1280" width="130.5" height="70" as="geometry" />
        </mxCell>
        <mxCell id="4kux9JXm7JYMOQ9NT7fL-7" style="edgeStyle=none;rounded=0;html=1;dashed=1;labelBackgroundColor=none;startFill=0;endArrow=open;endFill=0;endSize=10;fontFamily=Verdana;fontSize=10;entryX=-0.003;entryY=0.411;entryPerimeter=0;" edge="1" parent="1">
          <mxGeometry relative="1" as="geometry">
            <mxPoint x="729.5" y="1208.4620034542315" as="sourcePoint" />
            <mxPoint x="957.21" y="1281.5" as="targetPoint" />
          </mxGeometry>
        </mxCell>
        <mxCell id="4kux9JXm7JYMOQ9NT7fL-8" value="VegetablePizza" style="shape=folder;fontStyle=1;spacingTop=10;tabWidth=50;tabHeight=17;tabPosition=left;html=1;rounded=0;shadow=0;comic=0;labelBackgroundColor=none;strokeWidth=1;fontFamily=Verdana;fontSize=10;align=center;" vertex="1" parent="1">
          <mxGeometry x="789" y="1468" width="112" height="70" as="geometry" />
        </mxCell>
        <mxCell id="4kux9JXm7JYMOQ9NT7fL-10" value="PepperoniPizza" style="shape=folder;fontStyle=1;spacingTop=10;tabWidth=50;tabHeight=17;tabPosition=left;html=1;rounded=0;shadow=0;comic=0;labelBackgroundColor=none;strokeWidth=1;fontFamily=Verdana;fontSize=10;align=center;" vertex="1" parent="1">
          <mxGeometry x="939.25" y="1468" width="112" height="70" as="geometry" />
        </mxCell>
        <mxCell id="4kux9JXm7JYMOQ9NT7fL-11" value="" style="shape=folder;fontStyle=1;spacingTop=10;tabWidth=123;tabHeight=24;tabPosition=left;html=1;rounded=0;shadow=0;comic=0;labelBackgroundColor=none;strokeWidth=1;fontFamily=Verdana;fontSize=10;align=center;container=1;" vertex="1" parent="1">
          <mxGeometry x="477" y="800" width="350" height="126.5" as="geometry" />
        </mxCell>
        <mxCell id="4kux9JXm7JYMOQ9NT7fL-14" value="OnlineClientDAO" style="shape=folder;fontStyle=1;spacingTop=10;tabWidth=50;tabHeight=17;tabPosition=left;html=1;rounded=0;shadow=0;comic=0;labelBackgroundColor=none;strokeWidth=1;fontFamily=Verdana;fontSize=10;align=center;" vertex="1" parent="4kux9JXm7JYMOQ9NT7fL-11">
          <mxGeometry x="213" y="37.07" width="113.08" height="64.87" as="geometry" />
        </mxCell>
        <mxCell id="4kux9JXm7JYMOQ9NT7fL-12" value="" style="group" vertex="1" connectable="0" parent="4kux9JXm7JYMOQ9NT7fL-11">
          <mxGeometry x="10" y="40" width="130" height="61.94" as="geometry" />
        </mxCell>
        <mxCell id="4kux9JXm7JYMOQ9NT7fL-13" value="InPersonClientDAO" style="shape=folder;fontStyle=1;spacingTop=10;tabWidth=50;tabHeight=17;tabPosition=left;html=1;rounded=0;shadow=0;comic=0;labelBackgroundColor=none;strokeWidth=1;fontFamily=Verdana;fontSize=10;align=center;" vertex="1" parent="4kux9JXm7JYMOQ9NT7fL-12">
          <mxGeometry width="116.13364302304805" height="61.94" as="geometry" />
        </mxCell>
        <mxCell id="4kux9JXm7JYMOQ9NT7fL-25" style="edgeStyle=elbowEdgeStyle;rounded=0;orthogonalLoop=1;jettySize=auto;html=1;entryX=0.397;entryY=0.191;entryDx=0;entryDy=0;entryPerimeter=0;" edge="1" parent="1">
          <mxGeometry relative="1" as="geometry">
            <mxPoint x="651.55" y="700" as="sourcePoint" />
            <mxPoint x="651.5" y="824.1614999999999" as="targetPoint" />
          </mxGeometry>
        </mxCell>
        <mxCell id="4kux9JXm7JYMOQ9NT7fL-15" value="ClientDAO" style="shape=folder;fontStyle=1;spacingTop=10;tabWidth=50;tabHeight=17;tabPosition=left;html=1;rounded=0;shadow=0;comic=0;labelBackgroundColor=none;strokeWidth=1;fontFamily=Verdana;fontSize=10;align=center;" vertex="1" parent="1">
          <mxGeometry x="599.5" y="660" width="110" height="70" as="geometry" />
        </mxCell>
        <mxCell id="4kux9JXm7JYMOQ9NT7fL-18" style="edgeStyle=orthogonalEdgeStyle;rounded=0;orthogonalLoop=1;jettySize=auto;html=1;exitX=0.486;exitY=0.257;exitDx=0;exitDy=0;exitPerimeter=0;" edge="1" parent="1" source="6e0c8c40b5770093-4">
          <mxGeometry relative="1" as="geometry">
            <mxPoint x="663" y="930" as="targetPoint" />
          </mxGeometry>
        </mxCell>
        <mxCell id="4kux9JXm7JYMOQ9NT7fL-20" value="" style="edgeStyle=orthogonalEdgeStyle;rounded=0;orthogonalLoop=1;jettySize=auto;html=1;" edge="1" parent="1" source="6e0c8c40b5770093-4" target="6e0c8c40b5770093-42">
          <mxGeometry relative="1" as="geometry">
            <Array as="points">
              <mxPoint x="665" y="1140" />
              <mxPoint x="665" y="1140" />
            </Array>
          </mxGeometry>
        </mxCell>
        <mxCell id="4kux9JXm7JYMOQ9NT7fL-26" value="" style="group" vertex="1" connectable="0" parent="1">
          <mxGeometry x="755.5" y="1000" width="261.5" height="100" as="geometry" />
        </mxCell>
        <mxCell id="4kux9JXm7JYMOQ9NT7fL-27" value="Calculation&lt;br&gt;Singleton" style="shape=folder;fontStyle=1;spacingTop=10;tabWidth=50;tabHeight=17;tabPosition=left;html=1;rounded=0;shadow=0;comic=0;labelBackgroundColor=none;strokeWidth=1;fontFamily=Verdana;fontSize=10;align=center;" vertex="1" parent="4kux9JXm7JYMOQ9NT7fL-26">
          <mxGeometry width="130" height="70" as="geometry" />
        </mxCell>
        <mxCell id="4kux9JXm7JYMOQ9NT7fL-28" value="" style="group" vertex="1" connectable="0" parent="1">
          <mxGeometry x="945.5" y="1000" width="261.5" height="100" as="geometry" />
        </mxCell>
        <mxCell id="4kux9JXm7JYMOQ9NT7fL-29" value="&amp;lt;&amp;lt;interface&amp;gt;&amp;gt;&lt;br&gt;PizzaFactory" style="shape=folder;fontStyle=1;spacingTop=10;tabWidth=50;tabHeight=17;tabPosition=left;html=1;rounded=0;shadow=0;comic=0;labelBackgroundColor=none;strokeWidth=1;fontFamily=Verdana;fontSize=10;align=center;" vertex="1" parent="4kux9JXm7JYMOQ9NT7fL-28">
          <mxGeometry width="130" height="70" as="geometry" />
        </mxCell>
        <mxCell id="4kux9JXm7JYMOQ9NT7fL-30" style="edgeStyle=orthogonalEdgeStyle;rounded=0;orthogonalLoop=1;jettySize=auto;html=1;exitX=0;exitY=0;exitDx=130;exitDy=43.5;exitPerimeter=0;entryX=0;entryY=0;entryDx=0;entryDy=43.5;entryPerimeter=0;" edge="1" parent="1" source="6e0c8c40b5770093-4" target="4kux9JXm7JYMOQ9NT7fL-27">
          <mxGeometry relative="1" as="geometry" />
        </mxCell>
        <mxCell id="4kux9JXm7JYMOQ9NT7fL-32" style="edgeStyle=orthogonalEdgeStyle;rounded=0;orthogonalLoop=1;jettySize=auto;html=1;exitX=0;exitY=0;exitDx=130;exitDy=43.5;exitPerimeter=0;entryX=0;entryY=0;entryDx=0;entryDy=43.5;entryPerimeter=0;" edge="1" parent="1" source="4kux9JXm7JYMOQ9NT7fL-27" target="4kux9JXm7JYMOQ9NT7fL-29">
          <mxGeometry relative="1" as="geometry" />
        </mxCell>
      </root>
    </mxGraphModel>
  </diagram>
</mxfile>
